# xmcd
# 
# Track frame offsets:
#     150
#     23258
#     40545
#     59345
#     77882
#     95220
#     113673
#     131248
#     148743
#     170893
#     191919
# 
# Disc length: 2814
# 
# Revision: 0
# Processed by: cddbd v1.5.2PL0 Copyright (c) Steve Scherf et al.
# Submitted via: fre:ac v1.0.17
# 
DISCID=9b0afc0b
DTITLE=山口百恵 - Disc17 A Face in a Vision
DYEAR=2003
DGENRE=JPop
TTITLE0=マホガニー・モーニング
TTITLE1=愛の行方
TTITLE2=悲しきドラマー・マン
TTITLE3=おだやかな構図
TTITLE4=美・サイレント
TTITLE5=ディ・ドゥリーム
TTITLE6=ギャルソン・アミ
TTITLE7=喰べられてしまった貘
TTITLE8=水曜日のクオレ
TTITLE9=想い出のミラージュ
TTITLE10=夜へ…
EXTD=YEAR: 2003
EXTT0=
EXTT1=
EXTT2=
EXTT3=
EXTT4=
EXTT5=
EXTT6=
EXTT7=
EXTT8=
EXTT9=
EXTT10=
PLAYORDER=
